<?xml version="1.0" encoding="UTF-8" standalone="no"?>
<!-- Created with Inkscape (http://www.inkscape.org/) -->

<svg
   width="16"
   height="16"
   viewBox="0 0 4.2333333 4.2333333"
   version="1.1"
   id="svg1"
   inkscape:version="1.3.2 (091e20ef0f, 2023-11-25, custom)"
   sodipodi:docname="codemp-white-path-tiny-nocircle-darkmode.svg"
   xmlns:inkscape="http://www.inkscape.org/namespaces/inkscape"
   xmlns:sodipodi="http://sodipodi.sourceforge.net/DTD/sodipodi-0.dtd"
   xmlns="http://www.w3.org/2000/svg"
   xmlns:svg="http://www.w3.org/2000/svg">
  <sodipodi:namedview
     id="namedview1"
     pagecolor="#505050"
     bordercolor="#eeeeee"
     borderopacity="1"
     inkscape:showpageshadow="0"
     inkscape:pageopacity="0"
     inkscape:pagecheckerboard="0"
     inkscape:deskcolor="#505050"
     inkscape:document-units="mm"
     inkscape:zoom="24.737637"
     inkscape:cx="4.6892111"
     inkscape:cy="9.0348161"
     inkscape:window-width="2510"
     inkscape:window-height="1366"
     inkscape:window-x="25"
     inkscape:window-y="525"
     inkscape:window-maximized="1"
     inkscape:current-layer="layer1" />
  <defs
     id="defs1" />
  <g
     inkscape:label="fg"
     inkscape:groupmode="layer"
     id="layer1"
     transform="matrix(1.0016941,0,0,1.0016941,-31.06987,-13.439048)">
    <path
       style="font-weight:bold;font-size:33.8667px;line-height:1.25;font-family:'Monoid HalfTight';-inkscape-font-specification:'Monoid HalfTight';fill:#afb1b3;stroke-width:0.0112626;fill-opacity:1"
       d="m 33.762897,15.785963 v 0.380851 h 0.0585 q 0.08115,0 0.117956,-0.0074 0.06417,-0.01307 0.10192,-0.06255 0.03869,-0.04948 0.03869,-0.120415 0,-0.07095 -0.03869,-0.120417 -0.03775,-0.04947 -0.10192,-0.06255 -0.03681,-0.0074 -0.117956,-0.0074 z m -0.241581,-0.224031 h 0.298201 q 0.139663,0 0.199115,0.01399 0.134001,0.03174 0.217988,0.139086 0.08493,0.106411 0.08493,0.26137 0,0.154954 -0.08493,0.262302 -0.08399,0.106412 -0.217988,0.138153 -0.05944,0.014 -0.199115,0.014 h -0.05663 v 0.485399 h -0.241581 z"
       id="text4"
       inkscape:label="P"
       aria-label="P" />
    <path
       style="font-weight:bold;font-size:33.8667px;line-height:1.25;font-family:'Monoid HalfTight';-inkscape-font-specification:'Monoid HalfTight';fill:#adb1b3;stroke-width:0.0112626;fill-opacity:1"
       d="m 33.756552,15.428385 h -0.24158 v -1.314313 h 0.24158 l 0.176468,0.408856 h 0.01041 l 0.175522,-0.408856 h 0.24158 v 1.314313 h -0.241614 v -0.83638 h -0.0094 l -0.119852,0.238965 h -0.10378 l -0.119853,-0.242699 h -0.0094 z"
       id="text5"
       inkscape:label="M"
       aria-label="M" />
    <path
       style="font-weight:bold;font-size:90.3111px;line-height:1.25;font-family:'Monoid HalfTight';-inkscape-font-specification:'Monoid HalfTight';fill:#adb1b3;stroke-width:0.0112626;fill-opacity:1"
       d="m 32.791187,15.546679 q 0.218932,0.08214 0.309524,0.229008 0.09058,0.146867 0.09058,0.42317 v 0.629776 q 0,0.119483 0.08053,0.169268 0.08053,0.0473 0.241579,0.0473 v 0.597416 q -0.450445,0 -0.709642,-0.199139 Q 32.54708,17.24434 32.54708,16.828639 v -0.629776 q 0,-0.201627 -0.163569,-0.283771 -0.161053,-0.08214 -0.480645,-0.08214 v -0.597415 q 0.319592,0 0.480645,-0.08214 0.163569,-0.08214 0.163569,-0.283773 v -0.629775 q 0,-0.415701 0.256678,-0.614838 0.259197,-0.199139 0.709642,-0.199139 v 0.597415 q -0.161054,0 -0.241579,0.04979 -0.08053,0.0473 -0.08053,0.166779 v 0.629774 q 0,0.276305 -0.09058,0.42317 -0.09058,0.146865 -0.309524,0.229009 z"
       id="text6"
       inkscape:label="{"
       aria-label="{" />
  </g>
</svg>
